<svg width="56" height="55" viewBox="0 0 56 55" fill="none" xmlns="http://www.w3.org/2000/svg">
<g clip-path="url(#clip0_415_498)">
<path d="M15.7778 7.94434H43.2778V10.3124H15.7778V7.94434Z" fill="white"/>
<path d="M44.8056 12.2223H15.564C15.1741 12.2168 14.7894 12.1324 14.433 11.9741C14.0766 11.8159 13.756 11.5871 13.4905 11.3015C13.2249 11.016 13.02 10.6797 12.8879 10.3128C12.7559 9.94587 12.6996 9.55604 12.7223 9.16678C12.7204 8.39212 13.0128 7.64567 13.5404 7.07841C14.0679 6.51115 14.7912 6.16544 15.564 6.11122H44.8056C45.2108 6.11122 45.5994 5.95026 45.8859 5.66374C46.1725 5.37723 46.3334 4.98863 46.3334 4.58344C46.3334 4.17825 46.1725 3.78965 45.8859 3.50314C45.5994 3.21663 45.2108 3.05566 44.8056 3.05566H15.564C13.9806 3.11112 12.4806 3.77936 11.3804 4.91946C10.2802 6.05956 9.66578 7.58239 9.66675 9.16678C9.65145 9.41608 9.65145 9.66608 9.66675 9.91539C9.65203 10.0372 9.65203 10.1603 9.66675 10.2821V45.8334C9.66578 47.4178 10.2802 48.9407 11.3804 50.0808C12.4806 51.2209 13.9806 51.8891 15.564 51.9446H44.8056C45.2108 51.9446 45.5994 51.7836 45.8859 51.4971C46.1725 51.2106 46.3334 50.822 46.3334 50.4168V13.8571C46.3343 13.4414 46.1768 13.041 45.893 12.7374C45.6092 12.4337 45.2204 12.2495 44.8056 12.2223Z" fill="white"/>
</g>
<defs>
<clipPath id="clip0_415_498">
<rect width="55" height="55" fill="white" transform="translate(0.5)"/>
</clipPath>
</defs>
</svg>
